<?xml version="1.0" standalone="no"?>
<!DOCTYPE svg PUBLIC "-//W3C//DTD SVG 20010904//EN"
 "http://www.w3.org/TR/2001/REC-SVG-20010904/DTD/svg10.dtd">
<svg version="1.0" xmlns="http://www.w3.org/2000/svg"
 width="256.000000pt" height="256.000000pt" viewBox="0 0 256.000000 256.000000"
 preserveAspectRatio="xMidYMid meet">

<g transform="translate(0.000000,256.000000) scale(0.100000,-0.100000)"
fill="#000000" stroke="none">
<path d="M1155 2504 c-283 -28 -552 -161 -756 -372 -175 -180 -282 -385 -330
-632 -17 -85 -17 -367 0 -445 56 -262 171 -474 353 -651 181 -176 391 -287
638 -335 84 -16 356 -16 440 0 247 48 457 159 638 335 183 179 303 402 353
656 16 84 16 356 0 440 -48 247 -159 457 -335 638 -175 179 -384 294 -631 347
-70 15 -295 27 -370 19z m895 -736 c71 -49 70 -44 70 -512 0 -398 -1 -422 -20
-461 -11 -22 -34 -49 -52 -60 -32 -19 -56 -20 -726 -23 -670 -2 -694 -2 -737
17 -27 12 -52 33 -65 53 -19 32 -20 49 -20 468 0 416 1 436 20 468 11 18 34
41 52 52 32 19 52 20 739 20 l706 0 33 -22z"/>
<path d="M650 1518 l0 -63 60 0 60 0 0 63 0 62 -60 0 -60 0 0 -62z"/>
<path d="M850 1518 l0 -63 62 1 63 2 3 61 3 61 -66 0 -65 0 0 -62z"/>
<path d="M1050 1518 l0 -63 60 0 60 0 0 63 0 62 -60 0 -60 0 0 -62z"/>
<path d="M1250 1518 l0 -63 60 0 60 0 0 63 0 62 -60 0 -60 0 0 -62z"/>
<path d="M1450 1518 l0 -63 60 0 60 0 0 63 0 62 -60 0 -60 0 0 -62z"/>
<path d="M1650 1518 l0 -63 60 0 60 0 0 63 0 62 -60 0 -60 0 0 -62z"/>
<path d="M1850 1518 l0 -63 60 0 60 0 0 63 0 62 -60 0 -60 0 0 -62z"/>
<path d="M650 1250 l0 -60 60 0 60 0 0 60 0 60 -60 0 -60 0 0 -60z"/>
<path d="M848 1250 l4 -60 59 0 59 0 0 60 0 60 -62 0 -63 0 3 -60z"/>
<path d="M1050 1245 l0 -65 60 0 60 0 0 65 0 65 -60 0 -60 0 0 -65z"/>
<path d="M1250 1250 l0 -60 60 0 60 0 0 60 0 60 -60 0 -60 0 0 -60z"/>
<path d="M1450 1250 l0 -60 60 0 60 0 0 60 0 60 -60 0 -60 0 0 -60z"/>
<path d="M1650 1250 l0 -60 60 0 60 0 0 60 0 60 -60 0 -60 0 0 -60z"/>
<path d="M1850 1250 l0 -60 60 0 60 0 0 60 0 60 -60 0 -60 0 0 -60z"/>
<path d="M650 983 l0 -63 125 0 125 0 0 63 0 62 -125 0 -125 0 0 -62z"/>
<path d="M984 1041 c-2 -2 -4 -31 -4 -63 l0 -58 330 0 330 0 0 63 0 62 -326 0
c-179 0 -328 -2 -330 -4z"/>
<path d="M1713 1034 c-2 -6 -3 -33 -1 -60 l3 -49 128 -3 127 -3 0 63 0 63
-126 0 c-85 0 -128 -4 -131 -11z"/>
</g>
</svg>
